<svg xmlns="http://www.w3.org/2000/svg" viewBox="0 0 256 256" role="img" aria-label="Soccer ball">
  <defs>
    <radialGradient id="ball" cx="35%" cy="24%" r="78%">
      <stop offset="0" stop-color="#ffffff"/>
      <stop offset=".68" stop-color="#f5f7fb"/>
      <stop offset="1" stop-color="#cbd5e1"/>
    </radialGradient>
    <filter id="shadow" x="-20%" y="-12%" width="140%" height="140%">
      <feDropShadow dx="0" dy="10" stdDeviation="10" flood-color="#000" flood-opacity=".35"/>
    </filter>
  </defs>
  <circle cx="128" cy="126" r="100" fill="url(#ball)" filter="url(#shadow)"/>
  <circle cx="128" cy="126" r="100" fill="none" stroke="#111827" stroke-width="10"/>
  <polygon points="128 75 171 106 154 157 102 157 85 106" fill="#111827" stroke="#111827" stroke-linejoin="round" stroke-width="8"/>
  <g fill="none" stroke="#111827" stroke-linecap="round" stroke-linejoin="round" stroke-width="8">
    <path d="M128 75 126 28"/>
    <path d="M171 106 220 83"/>
    <path d="M154 157 187 211"/>
    <path d="M102 157 69 211"/>
    <path d="M85 106 36 83"/>
    <path d="M48 83c9-27 29-44 58-51"/>
    <path d="M150 32c29 7 49 24 58 51"/>
    <path d="M69 211c-23-14-38-35-42-62"/>
    <path d="M187 211c23-14 38-35 42-62"/>
  </g>
  <ellipse cx="91" cy="61" rx="29" ry="17" fill="#fff" opacity=".55"/>
</svg>
